HIERARCHY
ROOT root
{
	OFFSET 0.000000 0.000000 0.000000
	CHANNELS 6 Xposition Yposition Zposition Zrotation Yrotation Xrotation
	JOINT lhip
	{
		OFFSET 0.058581 -0.082280 -0.017664
		CHANNELS 3 Zrotation Yrotation Xrotation
		JOINT lknee
		{
			OFFSET 0.043451 -0.386469 0.008037
			CHANNELS 3 Zrotation Yrotation Xrotation
			JOINT lankle
			{
				OFFSET -0.014790 -0.426874 -0.037428
				CHANNELS 3 Zrotation Yrotation Xrotation
				JOINT ltoe
				{
					OFFSET 0.041054 -0.060286 0.122042
					CHANNELS 3 Zrotation Yrotation Xrotation
					End Site
					{
						OFFSET 0.000000 0.000000 0.000000
					}
				}
			}
		}
	}
	JOINT rhip
	{
		OFFSET -0.060310 -0.090513 -0.013543
		CHANNELS 3 Zrotation Yrotation Xrotation
		JOINT rknee
		{
			OFFSET -0.043257 -0.383688 -0.004843
			CHANNELS 3 Zrotation Yrotation Xrotation
			JOINT rankle
			{
				OFFSET 0.019056 -0.420046 -0.034562
				CHANNELS 3 Zrotation Yrotation Xrotation
				JOINT rtoe
				{
					OFFSET -0.034840 -0.062106 0.130323
					CHANNELS 3 Zrotation Yrotation Xrotation
					End Site
					{
						OFFSET 0.000000 0.000000 0.000000
					}
				}
			}
		}
	}
	JOINT lowerback
	{
		OFFSET 0.004439 0.124404 -0.038385
		CHANNELS 3 Zrotation Yrotation Xrotation
		JOINT upperback
		{
			OFFSET 0.004488 0.137956 0.026820
			CHANNELS 3 Zrotation Yrotation Xrotation
			JOINT chest
			{
				OFFSET -0.002265 0.056032 0.002855
				CHANNELS 3 Zrotation Yrotation Xrotation
				JOINT lowerneck
				{
					OFFSET -0.013390 0.211636 -0.033468
					CHANNELS 3 Zrotation Yrotation Xrotation
					JOINT upperneck
					{
						OFFSET 0.010113 0.088937 0.050410
						CHANNELS 3 Zrotation Yrotation Xrotation
						End Site
						{
							OFFSET 0.000000 0.000000 0.000000
						}
					}
				}
				JOINT lclavicle
				{
					OFFSET 0.071702 0.114000 -0.018898
					CHANNELS 3 Zrotation Yrotation Xrotation
					JOINT lshoulder
					{
						OFFSET 0.122921 0.045205 -0.019046
						CHANNELS 3 Zrotation Yrotation Xrotation
						JOINT lelbow
						{
							OFFSET 0.255332 -0.015649 -0.022946
							CHANNELS 3 Zrotation Yrotation Xrotation
							JOINT lwrist
							{
								OFFSET 0.265709 0.012698 -0.007375
								CHANNELS 3 Zrotation Yrotation Xrotation
								End Site
								{
									OFFSET 0.000000 0.000000 0.000000
								}
							}
						}
					}
				}
				JOINT rclavicle
				{
					OFFSET -0.082954 0.112472 -0.023707
					CHANNELS 3 Zrotation Yrotation Xrotation
					JOINT rshoulder
					{
						OFFSET -0.113228 0.046853 -0.008472
						CHANNELS 3 Zrotation Yrotation Xrotation
						JOINT relbow
						{
							OFFSET -0.260127 -0.014369 -0.031269
							CHANNELS 3 Zrotation Yrotation Xrotation
							JOINT rwrist
							{
								OFFSET -0.269108 0.006794 -0.006027
								CHANNELS 3 Zrotation Yrotation Xrotation
								End Site
								{
									OFFSET 0.000000 0.000000 0.000000
								}
							}
						}
					}
				}
			}
		}
	}
}
MOTION
Frames: 13
Frame Time: 0.033333
0.002800 0.235900 1.005347 90.500958 0.719186 88.648211 2.020413 1.032300 2.548407 0.853512 -6.480663 -1.988388 -0.876511 8.112923 -2.835859 0.000000 -0.000000 0.000000 -1.997356 -3.656766 3.110125 -1.451813 -0.646434 -2.947470 3.615106 -7.331700 -1.402705 0.000000 -0.000000 0.000000 -0.972174 2.637984 0.365931 0.656653 -4.335897 8.664387 -0.212386 -0.921819 -5.843928 0.647230 -4.889994 -0.651478 7.296725 -6.448514 -4.959068 -24.409309 -6.124281 4.170540 -58.814157 -6.226024 18.387124 5.766502 -19.257987 11.404937 -14.954114 -10.546999 11.587473 23.077721 12.079202 4.277162 59.471505 5.686915 17.246385 -4.501415 16.529795 7.600294 12.385051 7.126928 3.570606 
0.002676 0.235665 1.005255 90.435388 0.791612 88.616070 2.132127 1.021917 2.569016 0.827550 -6.479704 -1.961667 -1.011311 8.196602 -2.918231 0.000000 -0.000000 0.000000 -1.874530 -3.664037 3.116113 -1.520438 -0.600321 -2.876200 3.498076 -7.442097 -1.660492 0.000000 -0.000000 0.000000 -0.827369 2.638407 0.513780 0.568509 -4.264010 8.251218 -0.210934 -0.902286 -5.567115 0.690504 -4.812175 -0.552017 7.339007 -6.425011 -5.027501 -24.254187 -6.237641 4.150556 -58.931448 -6.166218 18.412286 5.757135 -19.349123 11.647492 -15.198684 -10.555388 11.527246 23.059738 12.102095 4.244804 59.528125 5.618420 17.171385 -4.523460 16.525184 7.620778 12.358573 7.216702 3.472815 
0.001633 0.236088 1.004683 90.793755 1.051528 88.985829 2.372317 1.376143 1.928433 1.023961 -7.089891 -1.710170 -1.179672 8.173987 -3.068234 0.000000 -0.000000 0.000000 -1.438933 -3.831665 2.688698 -1.727443 -0.524297 -2.824048 3.589620 -7.694467 -1.577567 0.000000 -0.000000 0.000000 -0.501970 2.505335 -0.076905 0.648488 -4.389879 8.658633 -0.400595 -0.914824 -5.578103 0.923114 -4.819998 -0.558894 7.210373 -6.390549 -5.248033 -23.551351 -6.498311 3.829913 -59.883745 -5.623510 19.168511 6.759639 -19.799406 10.994838 -14.395069 -8.294135 12.145693 22.328785 11.926126 3.738495 60.391621 5.607181 17.191178 -4.657769 16.574338 7.396550 12.884093 6.337152 3.840998 
0.001375 0.236346 1.004643 90.705122 1.000113 88.944860 2.320326 1.276350 2.044464 1.027410 -6.977717 -1.769053 -1.123954 8.315849 -3.056039 0.000000 -0.000000 0.000000 -1.471744 -3.753877 2.747798 -1.819021 -0.388277 -2.852511 3.506904 -7.717269 -1.703548 0.000000 -0.000000 0.000000 -0.522879 2.602953 -0.125664 0.617062 -4.369132 8.744807 -0.413587 -0.907469 -5.511891 0.944075 -4.796067 -0.487062 7.284925 -6.299733 -5.357420 -23.554365 -6.452253 3.865860 -59.849185 -5.734553 19.112230 6.702542 -19.768004 11.117275 -14.562257 -8.398128 12.286458 22.187912 11.837588 3.676697 60.651794 5.621364 17.224665 -4.807421 16.677097 7.473669 12.952699 6.293098 3.718308 
0.000976 0.236374 1.004800 90.719528 1.014104 88.993742 2.337545 1.284523 1.929781 1.020486 -6.995134 -1.705072 -1.098451 8.339693 -3.069818 0.000000 -0.000000 0.000000 -1.434799 -3.762430 2.614346 -1.829920 -0.312240 -2.743374 3.475696 -7.792982 -1.765470 0.000000 -0.000000 0.000000 -0.506156 2.600463 -0.171056 0.633730 -4.393426 8.800404 -0.414372 -0.917737 -5.563043 0.948229 -4.763410 -0.417858 7.311326 -6.218493 -5.440101 -23.617991 -6.423974 3.829983 -59.791426 -5.691061 19.172221 6.707410 -19.789003 11.121856 -14.623848 -8.368405 12.360837 22.192564 11.839817 3.650978 60.656684 5.552424 17.250612 -4.846109 16.767986 7.478985 13.005089 6.261718 3.703500 
0.000643 0.236444 1.004785 90.669039 1.018792 88.976322 2.355676 1.241467 1.945006 1.001013 -6.916732 -1.706097 -1.114809 8.341135 -3.015920 0.000000 -0.000000 0.000000 -1.469810 -3.778868 2.546362 -1.741755 -0.341190 -2.631460 3.618996 -7.784322 -1.538009 0.000000 -0.000000 0.000000 -0.491434 2.609497 -0.173636 0.645116 -4.396277 8.850655 -0.393443 -0.928512 -5.521214 0.956971 -4.628485 -0.411145 7.293477 -6.215540 -5.519147 -23.585986 -6.448095 3.844232 -59.827130 -5.731086 19.165581 6.689126 -19.800940 11.151332 -14.821749 -8.507257 12.374671 22.146555 11.860114 3.639564 60.674384 5.633196 17.259204 -4.835795 16.752328 7.515777 13.115666 6.280163 3.702571 
0.000209 0.236420 1.004880 90.705466 1.010704 88.991179 2.358702 1.300464 1.848380 0.974714 -6.950679 -1.623588 -1.128568 8.342083 -3.072553 0.000000 -0.000000 0.000000 -1.477109 -3.788647 2.501396 -1.752289 -0.361447 -2.590440 3.513881 -7.843165 -1.644942 0.000000 -0.000000 0.000000 -0.510668 2.550131 -0.178624 0.662254 -4.433871 8.857918 -0.362378 -0.905781 -5.467214 0.940778 -4.604234 -0.444774 7.276473 -6.120064 -5.537423 -23.600223 -6.495261 3.812098 -59.808120 -5.776078 19.187958 6.642483 -19.746117 11.260826 -14.897497 -8.429378 12.373802 22.142001 11.881863 3.623483 60.625286 5.665040 17.247893 -4.788825 16.749913 7.638910 13.228332 6.295834 3.726133 
-0.000404 0.236501 1.005043 90.657144 0.970412 89.064017 2.273118 1.413553 1.667077 1.015891 -6.974424 -1.499023 -1.107332 8.280161 -3.013097 0.000000 -0.000000 0.000000 -1.515577 -3.746958 2.360931 -1.779481 -0.319511 -2.578871 3.495560 -7.675391 -1.642684 0.000000 -0.000000 0.000000 -0.520382 2.501677 -0.293812 0.665217 -4.439028 9.018827 -0.373666 -0.908962 -5.506807 0.945866 -4.576672 -0.402015 7.319025 -6.034476 -5.637835 -23.603404 -6.585571 3.841394 -59.795372 -5.831273 19.187856 6.634203 -19.630796 11.153605 -14.925252 -8.453115 12.475668 22.130549 11.948798 3.640870 60.599107 5.748396 17.223735 -4.771227 16.702396 7.635100 13.280736 6.284528 3.850057 
-0.000758 0.236467 1.005119 90.584729 0.980069 89.064996 2.296382 1.560605 1.623654 1.010721 -6.995183 -1.457951 -1.124372 8.220674 -2.996868 0.000000 -0.000000 0.000000 -1.524845 -3.735740 2.258032 -1.699942 -0.442344 -2.426411 3.491544 -7.723325 -1.603191 0.000000 -0.000000 0.000000 -0.486642 2.430656 -0.247102 0.671809 -4.385218 9.040656 -0.372455 -0.896779 -5.554497 0.964426 -4.500797 -0.437482 7.304984 -6.013825 -5.667105 -23.585813 -6.629660 3.878320 -59.791442 -5.844209 19.173532 6.578979 -19.633399 11.160125 -14.858679 -8.440710 12.453712 22.134701 11.992468 3.641490 60.558508 5.701153 17.224184 -4.755165 16.714704 7.675942 13.236119 6.279210 3.899174 
-0.000946 0.236299 1.005194 90.400938 1.002042 88.990695 2.340067 1.536145 1.745462 0.988380 -6.871560 -1.508300 -1.120229 8.333013 -3.033155 0.000000 -0.000000 0.000000 -1.477643 -3.654121 2.339289 -1.732547 -0.436259 -2.509113 3.508672 -7.665855 -1.567530 0.000000 -0.000000 0.000000 -0.434292 2.380285 -0.006993 0.677207 -4.441835 8.896379 -0.321764 -0.886925 -5.604172 0.939491 -4.437004 -0.471265 7.299265 -5.857422 -5.636069 -23.584642 -6.763612 4.008970 -59.850342 -5.707777 19.158748 6.685766 -19.652479 11.130822 -14.634012 -8.539138 12.463486 22.051457 12.060903 3.737746 60.602901 5.695807 17.197466 -4.721898 16.769176 7.757429 13.033701 6.369243 3.942715 
-0.000984 0.235920 1.005247 90.186954 1.035147 88.913097 2.413108 1.485783 1.899519 0.961513 -6.743372 -1.559926 -1.097434 8.418001 -3.027571 0.000000 -0.000000 0.000000 -1.399566 -3.579123 2.452513 -1.785774 -0.291566 -2.640021 3.529088 -7.615657 -1.496563 0.000000 -0.000000 0.000000 -0.447443 2.416969 0.020846 0.702615 -4.435262 8.920728 -0.256646 -0.873927 -5.583077 0.937456 -4.422464 -0.439929 7.290522 -5.797861 -5.564152 -23.646728 -6.833810 4.102870 -59.784611 -5.700434 19.140046 6.739670 -19.783892 11.195565 -14.515181 -8.606130 12.489238 22.029993 12.104034 3.768213 60.626806 5.677146 17.178217 -4.782135 16.784109 7.709858 12.942535 6.311616 3.815562 
-0.001132 0.235655 1.005348 89.944113 1.033432 88.823406 2.429971 1.407627 2.064546 0.957295 -6.559494 -1.620992 -1.068609 8.554822 -3.010952 0.000000 -0.000000 0.000000 -1.377134 -3.478653 2.514623 -1.816578 -0.261378 -2.657961 3.538819 -7.572092 -1.468211 0.000000 -0.000000 0.000000 -0.479673 2.497680 0.122235 0.732613 -4.426490 8.921349 -0.220044 -0.856487 -5.611404 0.925545 -4.485606 -0.334235 7.355259 -5.828296 -5.571922 -23.613666 -6.828082 4.044439 -59.798637 -5.714575 19.168951 6.648594 -19.798735 11.266161 -14.602487 -8.402946 12.448235 22.047829 12.060552 3.792030 60.631771 5.625957 17.199388 -4.812466 16.842273 7.636697 13.035310 6.245436 3.780317 
-0.001974 0.235834 1.005328 90.025182 0.981304 89.028173 2.355225 1.652939 1.654709 0.958940 -6.771543 -1.445173 -1.103169 8.408429 -3.015812 0.000000 -0.000000 0.000000 -1.449158 -3.543662 2.171726 -1.781210 -0.245627 -2.540209 3.544123 -7.599844 -1.482533 0.000000 -0.000000 0.000000 -0.486935 2.337546 0.058662 0.748510 -4.487525 8.855340 -0.235585 -0.890789 -5.677624 0.906007 -4.559000 -0.309970 7.363451 -5.821668 -5.609973 -23.567625 -6.850238 4.005735 -59.908166 -5.744130 19.317045 6.650953 -19.483722 11.136582 -14.678778 -8.411244 12.389490 22.007061 12.039810 3.716689 60.661113 5.582946 17.245971 -4.812554 16.805399 7.578414 13.113062 6.209594 3.660037 
